#Comment line ignore any data following # character 
#Hierarchical Translation and Rotation (.htr) file 
[Header]	
#Header keywords are followed by a single value 
FileType HTR		#Single word string
DataType HTRS		#Translation followed by rotation and scale data
FileVersion 1		#integer
NumSegments 84		#integer
NumFrames 2		#integer
DataFrameRate 30		#integer, data frame rate in this file
EulerRotationOrder ZYX
CalibrationUnits mm
RotationUnits Degrees
GlobalAxisofGravity Y
BoneLengthAxis Y
ScaleFactor 1.00
[SegmentNames&Hierarchy]
#CHILD	PARENT
MASTER GLOBAL
root MASTER
chest root
L_mid_tent01 root
R_mid_tent01 root
spine01 root
Bip01_Neck chest
L_humerus chest
R_humerus chest
weapon_bone chest
Bip01_Head Bip01_Neck
eye_left_bone Bip01_Head
eye_right_bone Bip01_Head
L_forearm L_humerus
L_front_hand L_forearm
L_weapon_bone L_forearm
L_front_hand01_01 L_front_hand
L_front_hand02_01 L_front_hand
L_front_hand03_01 L_front_hand
L_front_hand01_02 L_front_hand01_01
L_front_hand02_02 L_front_hand02_01
L_front_hand03_02 L_front_hand03_01
R_forearm R_humerus
R_front_hand R_forearm
R_weapon_bone R_forearm
R_front_hand01_01 R_front_hand
R_front_hand02_01 R_front_hand
R_front_hand03_01 R_front_hand
R_front_hand01_02 R_front_hand01_01
R_front_hand02_02 R_front_hand02_01
R_front_hand03_02 R_front_hand03_01
null_rope01_connect L_mid_tent01
Rope1_Seg01 null_rope01_connect
Rope1_Seg02 Rope1_Seg01
Rope1_Seg03 Rope1_Seg02
Rope1_Seg04 Rope1_Seg03
Rope1_Seg05 Rope1_Seg04
Rope1_Seg06 Rope1_Seg05
Rope1_Seg07 Rope1_Seg06
Rope1_Seg09 Rope1_Seg07
L_mid_hand01 Rope1_Seg09
L_mid_hand02 Rope1_Seg09
L_mid_hand03 Rope1_Seg09
null_rope02_connect R_mid_tent01
Rope2_Seg01 null_rope02_connect
Rope2_Seg02 Rope2_Seg01
Rope2_Seg03 Rope2_Seg02
Rope2_Seg04 Rope2_Seg03
Rope2_Seg05 Rope2_Seg04
Rope2_Seg06 Rope2_Seg05
Rope2_Seg07 Rope2_Seg06
Rope2_Seg09 Rope2_Seg07
R_mid_hand01 Rope2_Seg09
R_mid_hand02 Rope2_Seg09
R_mid_hand03 Rope2_Seg09
spine02 spine01
spine03 spine02
pelvis spine03
null_rope03_connect pelvis
null_rope04_connect pelvis
Rope3_Seg01 null_rope03_connect
Rope3_Seg02 Rope3_Seg01
Rope3_Seg03 Rope3_Seg02
Rope3_Seg04 Rope3_Seg03
Rope3_Seg05 Rope3_Seg04
Rope3_Seg06 Rope3_Seg05
Rope3_Seg07 Rope3_Seg06
Rope3_Seg08 Rope3_Seg07
Rope3_Seg09 Rope3_Seg08
R_rear_hand01 Rope3_Seg09
R_rear_hand02 Rope3_Seg09
R_rear_hand03 Rope3_Seg09
Rope4_Seg01 null_rope04_connect
Rope4_Seg02 Rope4_Seg01
Rope4_Seg03 Rope4_Seg02
Rope4_Seg04 Rope4_Seg03
Rope4_Seg05 Rope4_Seg04
Rope4_Seg06 Rope4_Seg05
Rope4_Seg07 Rope4_Seg06
Rope4_Seg08 Rope4_Seg07
Rope4_Seg09 Rope4_Seg08
L_rear_hand01 Rope4_Seg09
L_rear_hand02 Rope4_Seg09
L_rear_hand03 Rope4_Seg09
[BasePosition]
#SegmentName Tx, Ty, Tz, Rx, Ry, Rz, BoneLength
MASTER 0.000000 0.000000 0.000000 -90.000000 0.000000 0.000000 10.000000 
root 0.000000 0.000000 0.000000 0.000000 0.000000 0.000000 10.000000 
chest 0.000000 0.000000 0.000000 0.000000 0.000000 0.000000 10.000000 
L_mid_tent01 0.000000 0.000000 0.000000 0.000000 0.000000 0.000000 10.000000 
R_mid_tent01 0.000000 0.000000 0.000000 0.000000 0.000000 0.000000 10.000000 
spine01 0.000000 0.000000 0.000000 0.000000 0.000000 0.000000 10.000000 
Bip01_Neck 0.000000 0.000000 0.000000 0.000000 0.000000 0.000000 10.000000 
L_humerus 0.000000 0.000000 0.000000 0.000000 0.000000 0.000000 10.000000 
R_humerus 0.000000 0.000000 0.000000 0.000000 0.000000 0.000000 10.000000 
weapon_bone 0.000000 0.000000 0.000000 0.000000 0.000000 0.000000 10.000000 
Bip01_Head 0.000000 0.000000 0.000000 0.000000 0.000000 0.000000 10.000000 
eye_left_bone 0.000000 0.000000 0.000000 0.000000 0.000000 0.000000 10.000000 
eye_right_bone 0.000000 0.000000 0.000000 0.000000 0.000000 0.000000 10.000000 
L_forearm 0.000000 0.000000 0.000000 0.000000 0.000000 0.000000 10.000000 
L_front_hand 0.000000 0.000000 0.000000 0.000000 0.000000 0.000000 10.000000 
L_weapon_bone 0.000000 0.000000 0.000000 0.000000 0.000000 0.000000 10.000000 
L_front_hand01_01 0.000000 0.000000 0.000000 0.000000 0.000000 0.000000 10.000000 
L_front_hand02_01 0.000000 0.000000 0.000000 0.000000 0.000000 0.000000 10.000000 
L_front_hand03_01 0.000000 0.000000 0.000000 0.000000 0.000000 0.000000 10.000000 
L_front_hand01_02 0.000000 0.000000 0.000000 0.000000 0.000000 0.000000 10.000000 
L_front_hand02_02 0.000000 0.000000 0.000000 0.000000 0.000000 0.000000 10.000000 
L_front_hand03_02 0.000000 0.000000 0.000000 0.000000 0.000000 0.000000 10.000000 
R_forearm 0.000000 0.000000 0.000000 0.000000 0.000000 0.000000 10.000000 
R_front_hand 0.000000 0.000000 0.000000 0.000000 0.000000 0.000000 10.000000 
R_weapon_bone 0.000000 0.000000 0.000000 0.000000 0.000000 0.000000 10.000000 
R_front_hand01_01 0.000000 0.000000 0.000000 0.000000 0.000000 0.000000 10.000000 
R_front_hand02_01 0.000000 0.000000 0.000000 0.000000 0.000000 0.000000 10.000000 
R_front_hand03_01 0.000000 0.000000 0.000000 0.000000 0.000000 0.000000 10.000000 
R_front_hand01_02 0.000000 0.000000 0.000000 0.000000 0.000000 0.000000 10.000000 
R_front_hand02_02 0.000000 0.000000 0.000000 0.000000 0.000000 0.000000 10.000000 
R_front_hand03_02 0.000000 0.000000 0.000000 0.000000 0.000000 0.000000 10.000000 
null_rope01_connect 0.000000 0.000000 0.000000 0.000000 0.000000 0.000000 10.000000 
Rope1_Seg01 0.000000 0.000000 0.000000 0.000000 0.000000 0.000000 10.000000 
Rope1_Seg02 0.000000 0.000000 0.000000 0.000000 0.000000 0.000000 10.000000 
Rope1_Seg03 0.000000 0.000000 0.000000 0.000000 0.000000 0.000000 10.000000 
Rope1_Seg04 0.000000 0.000000 0.000000 0.000000 0.000000 0.000000 10.000000 
Rope1_Seg05 0.000000 0.000000 0.000000 0.000000 0.000000 0.000000 10.000000 
Rope1_Seg06 0.000000 0.000000 0.000000 0.000000 0.000000 0.000000 10.000000 
Rope1_Seg07 0.000000 0.000000 0.000000 0.000000 0.000000 0.000000 10.000000 
Rope1_Seg09 0.000000 0.000000 0.000000 0.000000 0.000000 0.000000 10.000000 
L_mid_hand01 0.000000 0.000000 0.000000 0.000000 0.000000 0.000000 10.000000 
L_mid_hand02 0.000000 0.000000 0.000000 0.000000 0.000000 0.000000 10.000000 
L_mid_hand03 0.000000 0.000000 0.000000 0.000000 0.000000 0.000000 10.000000 
null_rope02_connect 0.000000 0.000000 0.000000 0.000000 0.000000 0.000000 10.000000 
Rope2_Seg01 0.000000 0.000000 0.000000 0.000000 0.000000 0.000000 10.000000 
Rope2_Seg02 0.000000 0.000000 0.000000 0.000000 0.000000 0.000000 10.000000 
Rope2_Seg03 0.000000 0.000000 0.000000 0.000000 0.000000 0.000000 10.000000 
Rope2_Seg04 0.000000 0.000000 0.000000 0.000000 0.000000 0.000000 10.000000 
Rope2_Seg05 0.000000 0.000000 0.000000 0.000000 0.000000 0.000000 10.000000 
Rope2_Seg06 0.000000 0.000000 0.000000 0.000000 0.000000 0.000000 10.000000 
Rope2_Seg07 0.000000 0.000000 0.000000 0.000000 0.000000 0.000000 10.000000 
Rope2_Seg09 0.000000 0.000000 0.000000 0.000000 0.000000 0.000000 10.000000 
R_mid_hand01 0.000000 0.000000 0.000000 0.000000 0.000000 0.000000 10.000000 
R_mid_hand02 0.000000 0.000000 0.000000 0.000000 0.000000 0.000000 10.000000 
R_mid_hand03 0.000000 0.000000 0.000000 0.000000 0.000000 0.000000 10.000000 
spine02 0.000000 0.000000 0.000000 0.000000 0.000000 0.000000 10.000000 
spine03 0.000000 0.000000 0.000000 0.000000 0.000000 0.000000 10.000000 
pelvis 0.000000 0.000000 0.000000 0.000000 0.000000 0.000000 10.000000 
null_rope03_connect 0.000000 0.000000 0.000000 0.000000 0.000000 0.000000 10.000000 
null_rope04_connect 0.000000 0.000000 0.000000 0.000000 0.000000 0.000000 10.000000 
Rope3_Seg01 0.000000 0.000000 0.000000 0.000000 0.000000 0.000000 10.000000 
Rope3_Seg02 0.000000 0.000000 0.000000 0.000000 0.000000 0.000000 10.000000 
Rope3_Seg03 0.000000 0.000000 0.000000 0.000000 0.000000 0.000000 10.000000 
Rope3_Seg04 0.000000 0.000000 0.000000 0.000000 0.000000 0.000000 10.000000 
Rope3_Seg05 0.000000 0.000000 0.000000 0.000000 0.000000 0.000000 10.000000 
Rope3_Seg06 0.000000 0.000000 0.000000 0.000000 0.000000 0.000000 10.000000 
Rope3_Seg07 0.000000 0.000000 0.000000 0.000000 0.000000 0.000000 10.000000 
Rope3_Seg08 0.000000 0.000000 0.000000 0.000000 0.000000 0.000000 10.000000 
Rope3_Seg09 0.000000 0.000000 0.000000 0.000000 0.000000 0.000000 10.000000 
R_rear_hand01 0.000000 0.000000 0.000000 0.000000 0.000000 0.000000 10.000000 
R_rear_hand02 0.000000 0.000000 0.000000 0.000000 0.000000 0.000000 10.000000 
R_rear_hand03 0.000000 0.000000 0.000000 0.000000 0.000000 0.000000 10.000000 
Rope4_Seg01 0.000000 0.000000 0.000000 0.000000 0.000000 0.000000 10.000000 
Rope4_Seg02 0.000000 0.000000 0.000000 0.000000 0.000000 0.000000 10.000000 
Rope4_Seg03 0.000000 0.000000 0.000000 0.000000 0.000000 0.000000 10.000000 
Rope4_Seg04 0.000000 0.000000 0.000000 0.000000 0.000000 0.000000 10.000000 
Rope4_Seg05 0.000000 0.000000 0.000000 0.000000 0.000000 0.000000 10.000000 
Rope4_Seg06 0.000000 0.000000 0.000000 0.000000 0.000000 0.000000 10.000000 
Rope4_Seg07 0.000000 0.000000 0.000000 0.000000 0.000000 0.000000 10.000000 
Rope4_Seg08 0.000000 0.000000 0.000000 0.000000 0.000000 0.000000 10.000000 
Rope4_Seg09 0.000000 0.000000 0.000000 0.000000 0.000000 0.000000 10.000000 
L_rear_hand01 0.000000 0.000000 0.000000 0.000000 0.000000 0.000000 10.000000 
L_rear_hand02 0.000000 0.000000 0.000000 0.000000 0.000000 0.000000 10.000000 
L_rear_hand03 0.000000 0.000000 0.000000 0.000000 0.000000 0.000000 10.000000 
#Beginning of Data. Separated by tabs
#Fr	Tx	Ty	Tz	Rx	Ry	Rz	SF
[MASTER]
22 -2747.762207 2557.792480 1518.054443 0.001660 0.001660 0.001660 4049.319336
23 -2748.274658 2554.293213 1519.409790 0.001660 0.001660 0.001660 4047.966309
[root]
22 20.013123 -118.897095 462.015350 -164.097275 -13.418747 -70.800209 477.488495
23 20.013123 -118.897095 462.015350 -164.463043 -13.334212 -70.655128 477.488495
[chest]
22 -84.512650 -34.090519 0.000000 -39.886017 -23.888500 -179.589981 91.129311
23 -84.512650 -34.090519 0.000000 -40.169716 -24.302940 -179.280762 91.129311
[L_mid_tent01]
22 27.299007 22.179049 -249.918747 -10.615909 14.390594 39.142822 252.381714
23 27.299004 22.179047 -249.918747 -10.293736 14.402018 40.257362 252.381714
[R_mid_tent01]
22 23.228794 24.509907 226.238495 178.121353 -19.106735 31.816677 228.744751
23 23.228794 24.509907 226.238495 178.510040 -19.562365 31.115896 228.744751
[spine01]
22 -0.361383 -0.195265 0.000000 0.001957 0.001295 23.008982 0.410763
23 -0.361383 -0.195265 0.000000 0.001957 0.001296 22.992840 0.410763
[Bip01_Neck]
22 165.484543 71.581718 0.000119 176.643677 -1.657967 43.431911 180.302734
23 165.484543 71.581718 0.000119 176.643677 -1.657967 43.431911 180.302734
[L_humerus]
22 -13.983130 -135.272980 -120.471481 172.227966 1.093542 -89.092834 181.680161
23 -13.983130 -135.272980 -120.471481 171.344971 26.712317 -93.184753 181.680161
[R_humerus]
22 -13.983309 -135.273102 125.287651 -177.015244 3.234939 -85.371712 184.909012
23 -13.983309 -135.273102 125.287651 -163.870804 -16.401190 -111.412186 184.909012
[weapon_bone]
22 235.964890 -300.705902 0.000000 0.000000 -89.951546 -128.212341 382.234833
23 235.964890 -300.705902 0.000000 0.000000 -89.951546 -128.212341 382.234833
[Bip01_Head]
22 213.559418 185.395264 15.913080 -16.210938 0.822667 -43.879940 283.252991
23 213.540146 185.448898 15.220713 -15.367770 1.253516 -43.875759 283.235504
[eye_left_bone]
22 -24.626970 125.451866 -64.772606 0.000000 -90.000000 -99.840431 143.318359
23 -24.626970 125.451866 -64.772606 0.000000 -90.000000 -99.840431 143.318359
[eye_right_bone]
22 -24.626970 125.451866 64.327362 0.000000 -89.965736 80.156380 143.117676
23 -24.626970 125.451866 64.327362 0.000000 -89.972023 80.156380 143.117676
[L_forearm]
22 322.776093 0.000000 -0.000119 0.000167 -0.002341 -98.160271 322.776093
23 322.776093 0.000000 -0.000119 0.000173 -0.002341 -98.430534 322.776093
[L_front_hand]
22 241.149185 -0.042021 -3.300071 178.633972 -1.836973 -27.425039 241.171753
23 241.149185 -0.042021 -3.300071 -178.668304 -1.835447 -27.422348 241.171753
[L_weapon_bone]
22 156.183838 0.000000 0.000000 0.000014 0.000007 0.000001 156.183838
23 156.183838 0.000000 0.000000 0.000014 0.000007 0.000001 156.183838
[L_front_hand01_01]
22 86.095154 20.947098 -0.655860 -0.132125 -0.586460 50.417973 88.609184
23 86.095154 20.947098 -0.655860 -0.124398 -0.589262 49.784851 88.609184
[L_front_hand02_01]
22 86.935165 -11.437475 24.513514 128.856232 -43.841427 -29.509516 91.046425
23 86.935165 -11.437475 24.513514 128.476913 -43.347488 -28.965614 91.046425
[L_front_hand03_01]
22 86.637497 -14.123976 -20.424902 -129.824905 42.202728 -31.926966 90.126129
23 86.637497 -14.123976 -20.424902 -129.461655 41.715813 -31.382124 90.126129
[L_front_hand01_02]
22 71.020905 -0.000179 0.000030 0.000073 0.002346 -86.459023 71.020905
23 71.020905 -0.000179 0.000030 0.000246 0.002334 -77.956932 71.020905
[L_front_hand02_02]
22 71.020927 -0.000119 0.000060 0.000073 0.002346 -86.459023 71.020927
23 71.020927 -0.000119 0.000060 0.000246 0.002334 -77.956932 71.020927
[L_front_hand03_02]
22 71.020905 -0.000060 0.000060 0.000073 0.002346 -86.459023 71.020905
23 71.020905 -0.000060 0.000060 0.000246 0.002334 -77.956932 71.020905
[R_forearm]
22 322.776428 -0.000060 0.000030 0.212485 0.020617 -96.712151 322.776428
23 322.776428 -0.000060 0.000030 0.212436 0.021124 -96.985405 322.776428
[R_front_hand]
22 238.847015 -0.006795 2.210259 -4.678125 -10.644406 -26.316067 238.857239
23 238.847015 -0.006795 2.210259 -4.611753 -10.643983 -26.316532 238.857239
[R_weapon_bone]
22 155.664093 0.002503 -0.000030 0.003487 0.001180 -90.988930 155.664078
23 155.664093 0.002503 -0.000030 0.003487 0.001180 -90.988930 155.664078
[R_front_hand01_01]
22 87.624611 14.231146 22.918642 -150.820572 -58.784584 57.311871 91.683487
23 87.624611 14.231146 22.918642 -153.536880 -59.633732 60.470898 91.683487
[R_front_hand02_01]
22 89.356956 14.367283 -19.491137 151.027100 57.144756 59.518597 92.579636
23 89.356956 14.367283 -19.491137 153.567596 57.993011 62.531052 92.579636
[R_front_hand03_01]
22 87.286232 -22.307278 -0.143439 0.144811 -0.432554 -73.232857 90.091743
23 87.286232 -22.307278 -0.143439 0.155617 -0.427176 -75.061516 90.091743
[R_front_hand01_02]
22 71.020905 0.000060 0.000119 0.002323 -0.000334 106.381714 71.020905
23 71.020905 0.000060 0.000119 0.002323 -0.000334 106.381714 71.020905
[R_front_hand02_02]
22 71.020844 -0.000030 -0.000119 0.002323 -0.000334 106.381714 71.020836
23 71.020844 -0.000030 -0.000119 0.002323 -0.000334 106.381714 71.020836
[R_front_hand03_02]
22 71.020905 0.000000 0.000030 0.002323 -0.000334 106.381714 71.020905
23 71.020905 0.000000 0.000030 0.002323 -0.000334 106.381714 71.020905
[null_rope01_connect]
22 328.732483 0.000000 -0.000238 -162.861816 -4.359874 -112.694336 328.732483
23 328.732483 0.000000 -0.000238 -162.987183 -4.145822 -113.584000 328.732483
[Rope1_Seg01]
22 -0.000015 -0.000024 0.000153 5.238319 -61.785919 108.275818 0.000155
23 -0.000015 -0.000023 0.000153 6.158667 -60.851139 107.250496 0.000155
[Rope1_Seg02]
22 139.999863 -0.000179 0.000000 0.309082 3.266859 1.757089 139.999863
23 139.999863 -0.000179 0.000000 0.250990 3.158698 1.864008 139.999863
[Rope1_Seg03]
22 139.999924 0.000060 -0.000060 0.441073 5.429641 2.894618 139.999924
23 139.999924 0.000060 -0.000060 0.363437 5.208405 3.053401 139.999924
[Rope1_Seg04]
22 139.999924 -0.000060 -0.000119 0.855220 13.762834 6.898941 139.999924
23 139.999924 -0.000060 -0.000119 0.798614 12.928093 7.244418 139.999924
[Rope1_Seg05]
22 139.999832 0.000119 -0.000060 1.170423 29.343098 17.210405 139.999832
23 139.999832 0.000119 -0.000060 1.661374 27.441629 17.609821 139.999832
[Rope1_Seg06]
22 139.999954 0.000119 -0.000060 -0.464435 -1.141034 6.503826 139.999954
23 139.999954 0.000119 -0.000060 -0.394993 0.364407 6.086522 139.999954
[Rope1_Seg07]
22 139.999985 0.000060 0.000000 0.013472 4.182215 8.462697 139.999985
23 139.999985 0.000060 0.000000 0.063797 5.200335 8.239851 139.999985
[Rope1_Seg09]
22 121.602913 0.000119 -0.000089 -89.793175 -1.359789 0.847147 121.602913
23 121.602913 0.000119 -0.000089 -89.793175 -1.359789 0.847147 121.602913
[L_mid_hand01]
22 103.859421 1.038730 8.195221 114.394867 -53.111465 -20.468855 104.187431
23 103.859421 1.038730 8.195221 116.522400 -56.273518 -23.071623 104.187431
[L_mid_hand02]
22 105.572853 -4.139662 -10.864139 -154.909485 38.072231 -52.197922 106.211075
23 105.572853 -4.139662 -10.864139 -157.484589 39.487522 -56.304882 106.211075
[L_mid_hand03]
22 104.641464 17.579376 -3.913581 -11.031648 15.280059 57.403923 106.179977
23 104.641464 17.579376 -3.913581 -10.068317 15.918207 60.978386 106.179977
[null_rope02_connect]
22 328.732849 0.000179 -0.000119 -13.045778 20.332916 94.676697 328.732849
23 328.732849 0.000179 -0.000119 -13.453915 20.157787 93.872566 328.732849
[Rope2_Seg01]
22 0.000053 0.000187 0.000058 83.963959 69.549187 21.712473 0.000203
23 0.000053 0.000191 0.000061 81.394035 70.390022 18.767448 0.000207
[Rope2_Seg02]
22 139.999741 -0.000060 -0.000119 -1.118381 21.103252 -13.943899 139.999756
23 139.999741 -0.000060 -0.000119 -1.127271 19.680676 -12.051598 139.999756
[Rope2_Seg03]
22 140.000107 0.000030 0.000000 6.969711 26.713087 -20.756855 140.000107
23 140.000107 0.000030 0.000000 4.097397 31.044613 -22.068161 140.000107
[Rope2_Seg04]
22 139.999802 0.000000 -0.000060 51.237713 13.875205 -14.544842 139.999802
23 139.999802 0.000000 -0.000060 96.452072 17.700249 -16.579105 139.999802
[Rope2_Seg05]
22 139.999985 -0.000060 0.000119 74.253380 1.358040 -11.618962 139.999985
23 139.999985 -0.000060 0.000119 40.875889 -5.512978 -6.572272 139.999985
[Rope2_Seg06]
22 139.999893 -0.000030 -0.000119 23.247511 -8.561379 -4.005481 139.999893
23 139.999893 -0.000030 -0.000119 11.635184 -5.822052 -1.373508 139.999893
[Rope2_Seg07]
22 139.999893 0.000060 -0.000060 5.281849 -6.372573 0.302456 139.999893
23 139.999893 0.000060 -0.000060 4.082347 -4.821783 0.329985 139.999893
[Rope2_Seg09]
22 121.338966 0.000089 -0.000060 33.793236 -1.359788 -0.847141 121.338966
23 121.338966 0.000089 -0.000060 33.793236 -1.359788 -0.847141 121.338966
[R_mid_hand01]
22 104.680779 11.144459 -10.335981 -36.871487 32.306076 38.202847 105.778534
23 104.680779 11.144459 -10.335981 -35.915787 33.394672 39.963593 105.778534
[R_mid_hand02]
22 104.070427 2.443552 8.231699 70.159813 -43.055172 14.371502 104.424065
23 104.070427 2.443552 8.231699 69.545189 -44.771057 15.251757 104.424065
[R_mid_hand03]
22 106.028137 -11.221827 -5.996406 -170.040375 12.343992 -47.884903 106.788818
23 106.028137 -11.221827 -5.996406 -170.436981 12.655033 -49.730160 106.788818
[spine02]
22 129.756927 0.001550 0.000119 -0.791471 -3.981226 3.375042 129.756927
23 129.756927 0.001550 0.000119 -0.765879 -3.986612 2.992969 129.756927
[spine03]
22 78.613983 0.081729 -4.898978 1.192026 4.104215 6.332950 78.766518
23 78.613983 0.081726 -4.898977 1.208522 4.099646 6.566440 78.766518
[pelvis]
22 169.435242 0.051022 0.000000 0.007463 -0.191109 -6.441090 169.435257
23 169.435242 0.051022 0.000000 0.006661 -0.191137 -5.960594 169.435257
[null_rope03_connect]
22 -1.257226 -2.466202 137.391083 -172.615646 -19.341459 -96.384201 137.418976
23 -1.257226 -2.466202 137.391083 -172.620941 -19.023413 -96.601845 137.418976
[null_rope04_connect]
22 -1.259640 -2.480268 -137.844437 -172.615646 -19.341459 -96.384201 137.872513
23 -1.259640 -2.480268 -137.844437 -172.620941 -19.023413 -96.601845 137.872513
[Rope3_Seg01]
22 0.000000 0.000000 0.000000 23.184959 15.251738 -49.415459 0.000000
23 0.000000 0.000000 0.000000 24.672165 17.795010 -49.528774 0.000000
[Rope3_Seg02]
22 139.999924 -0.000119 0.000060 6.873949 11.262733 -25.571508 139.999924
23 139.999924 -0.000119 0.000060 6.656574 9.216520 -23.437279 139.999924
[Rope3_Seg03]
22 139.999924 -0.000119 0.000119 -6.464687 11.376071 -47.143589 139.999924
23 139.999924 -0.000119 0.000119 -5.255885 9.828137 -47.020248 139.999924
[Rope3_Seg04]
22 139.999924 0.000119 0.000000 -8.559459 5.766575 -19.456974 139.999924
23 139.999924 0.000119 0.000000 -9.755750 5.361999 -22.252563 139.999924
[Rope3_Seg05]
22 139.999924 -0.000238 0.000060 -8.747174 5.662083 -12.706691 139.999924
23 139.999924 -0.000238 0.000060 -10.228882 6.160450 -13.406439 139.999924
[Rope3_Seg06]
22 139.999893 -0.000119 -0.000060 -21.479803 12.359036 -20.263355 139.999893
23 139.999893 -0.000119 -0.000060 -22.572084 13.267685 -19.257616 139.999893
[Rope3_Seg07]
22 139.999771 0.000060 -0.000119 -19.724222 15.576559 -12.764384 139.999771
23 139.999771 0.000060 -0.000119 -17.788343 15.041765 -10.596130 139.999771
[Rope3_Seg08]
22 139.999985 -0.000060 0.000000 -7.473088 9.037401 -3.394027 139.999985
23 139.999985 -0.000060 0.000000 -6.704495 8.487532 -2.816482 139.999985
[Rope3_Seg09]
22 90.185997 -0.000179 -0.000060 89.793228 -1.359877 -0.847183 90.185997
23 90.185997 -0.000179 -0.000060 89.793228 -1.359877 -0.847183 90.185997
[R_rear_hand01]
22 103.366196 -6.073594 -10.757982 -175.033295 -18.440653 -52.427662 104.101845
23 103.366196 -6.073594 -10.757982 -176.050858 -17.968975 -54.454792 104.101845
[R_rear_hand02]
22 100.509819 12.039542 -7.992327 -29.842962 25.960030 40.362503 101.543350
23 100.509819 12.039542 -7.992327 -28.715403 27.221794 42.882904 101.543350
[R_rear_hand03]
22 101.539970 5.215704 5.435467 82.169098 -43.351940 9.256881 101.819031
23 101.539970 5.215704 5.435467 81.812378 -45.906330 9.761464 101.819031
[Rope4_Seg01]
22 -0.000019 -0.000117 -0.000153 -63.196968 -5.822487 -20.861164 0.000193
23 -0.000019 -0.000122 -0.000153 -66.205162 -7.489795 -20.318052 0.000196
[Rope4_Seg02]
22 139.999985 0.000060 0.000119 -116.378326 -14.704365 -35.168701 139.999985
23 139.999985 0.000060 0.000119 -115.498116 -12.399837 -33.247566 139.999985
[Rope4_Seg03]
22 139.999924 0.000000 -0.000238 27.281786 79.109444 42.725895 139.999924
23 139.999924 0.000000 -0.000238 34.336464 79.330460 50.483395 139.999924
[Rope4_Seg04]
22 139.999985 0.000000 0.000119 1.348856 11.467390 3.214467 139.999985
23 139.999985 0.000000 0.000119 1.513850 12.592747 3.687392 139.999985
[Rope4_Seg05]
22 139.999802 -0.000060 -0.000119 1.662994 7.041521 0.906796 139.999802
23 139.999802 -0.000060 -0.000119 1.881528 7.431084 0.936776 139.999802
[Rope4_Seg06]
22 139.999924 0.000000 0.000060 5.971873 13.787262 0.489868 139.999924
23 139.999924 0.000000 0.000060 6.707159 14.046170 0.359679 139.999924
[Rope4_Seg07]
22 139.999802 0.000000 0.000000 18.270132 18.829041 -0.995067 139.999802
23 139.999802 0.000000 0.000000 17.257124 16.844248 -1.155781 139.999802
[Rope4_Seg08]
22 139.999924 0.000000 0.000119 30.002850 12.716751 -4.865183 139.999924
23 139.999924 0.000000 0.000119 25.597555 11.174953 -4.242031 139.999924
[Rope4_Seg09]
22 90.185791 0.000060 0.000060 -135.617828 2.228885 0.850567 90.185791
23 90.185791 0.000060 0.000060 -135.617828 2.228885 0.850567 90.185791
[L_rear_hand01]
22 101.696655 -8.392275 -7.654577 -22.991789 -32.088047 125.593941 102.329041
23 101.696655 -8.392275 -7.654577 -21.250166 -33.196434 122.367783 102.329041
[L_rear_hand02]
22 102.726799 -1.568258 5.773216 79.542938 56.888885 167.348526 102.900848
23 102.726799 -1.568258 5.773216 78.649612 59.766800 166.297333 102.900848
[L_rear_hand03]
22 104.552910 9.721220 -10.420293 -170.919922 -23.031254 -122.815819 105.519653
23 104.552910 9.721220 -10.420293 -172.167084 -23.462940 -119.660820 105.519653
